<svg version="1.1" xmlns="http://www.w3.org/2000/svg" viewBox="-239.04555614377585 -9.69366700474092 478.0911122875517 19.38733400948184" fill="none" stroke="black" stroke-width="0.6%" vector-effect="non-scaling-stroke">
    <path d="M 162.05694 7.47434 L 162.05694 -2.52449 C 180.04 -2.52 188.23 -2.67 185.95506 -2.84361 C 180.04 -2.52 188.23 -2.67 185.41304 -2.94213 C 182.6 -3.21 187.1 -3.33 184.63589 -3.07423 C 182.6 -3.21 187.1 -3.33 204.20365 -3.41042 C 221.31 -3.5 226.13 -3.67 221.83675 -3.70611 C 221.31 -3.5 226.13 -3.67 217.9661 -3.91784 C 209.8 -4.16 211.81 -4.29 213.19657 -4.1566 C 209.8 -4.16 211.81 -4.29 226.36149 -4.45189 C 240.91 -4.61 241.9 -4.81 238.04556 -4.7328 C 240.91 -4.61 241.9 -4.81 229.18312 -4.99942 C 216.47 -5.19 215.79 -5.32 218.99147 -5.2819 C 216.47 -5.19 215.79 -5.32 226.36149 -5.54695 C 236.93 -5.77 233.99 -5.96 232.58811 -5.79135 C 236.93 -5.77 233.99 -5.96 217.9661 -6.081 C 201.94 -6.21 198.65 -6.33 201.69698 -6.39018 C 201.94 -6.21 198.65 -6.33 204.20365 -6.58841 C 209.76 -6.85 203.17 -7.01 206.12234 -6.75352 C 209.76 -6.85 203.17 -7.01 185.41304 -7.05671 C 167.65 -7.1 162.06 -7.2 162.05694 -7.47434 C 162.06 -7.75 152.47 -7.87 134.71046 -7.83103 C 116.95 -7.79 109.6 -7.86 104.04696 -8.118 C 98.49 -8.38 86.84 -8.45 70.82148 -8.32818 C 54.8 -8.2 46.42 -8.23 35.85214 -8.45639 C 25.28 -8.68 12.71 -8.69 0 -8.49949 C -12.71 -8.31 -21.3 -8.29 -35.85214 -8.45639 C -50.4 -8.62 -62.66 -8.57 -70.82148 -8.32818 C -78.98 -8.08 -86.95 -8.03 -104.04696 -8.118 C -121.15 -8.2 -131.9 -8.1 -134.71046 -7.83103 C -137.52 -7.56 -144.08 -7.47 -162.05694 -7.47434 C -180.04 -7.47 -188.23 -7.33 -185.95506 -7.15523 C -180.04 -7.47 -188.23 -7.33 -185.41304 -7.05671 C -182.6 -6.79 -187.1 -6.67 -184.63589 -6.9246 C -182.6 -6.79 -187.1 -6.67 -204.20365 -6.58841 C -221.31 -6.5 -226.13 -6.33 -221.83675 -6.29273 C -221.31 -6.5 -226.13 -6.33 -217.9661 -6.081 C -209.8 -5.84 -211.81 -5.71 -213.19657 -5.84223 C -209.8 -5.84 -211.81 -5.71 -226.36149 -5.54695 C -240.91 -5.39 -241.9 -5.19 -238.04556 -5.26603 C -240.91 -5.39 -241.9 -5.19 -229.18312 -4.99942 C -216.47 -4.81 -215.79 -4.67 -218.99147 -4.71694 C -216.47 -4.81 -215.79 -4.67 -226.36149 -4.45189 C -236.93 -4.23 -233.99 -4.04 -232.58811 -4.20749 C -236.93 -4.23 -233.99 -4.04 -217.9661 -3.91784 C -201.94 -3.79 -198.65 -3.67 -201.69698 -3.60866 C -201.94 -3.79 -198.65 -3.67 -204.20365 -3.41042 C -209.76 -3.15 -203.17 -2.99 -206.12234 -3.24531 C -209.76 -3.15 -203.17 -2.99 -185.41304 -2.94213 C -167.65 -2.9 -162.06 -2.8 -162.05694 -2.52449 C -162.06 -2.25 -152.47 -2.12 -134.71046 -2.1678 C -116.95 -2.21 -109.6 -2.14 -104.04696 -1.88083 C -98.49 -1.62 -86.84 -1.55 -70.82148 -1.67065 C -54.8 -1.8 -46.42 -1.76 -35.85214 -1.54244 C -25.28 -1.32 -12.71 -1.31 0 -1.49935 C 12.71 -1.69 21.3 -1.7 35.85214 -1.54244 C 50.4 -1.38 62.66 -1.43 70.82148 -1.67065 C 78.98 -1.92 86.95 -1.97 104.04696 -1.88083 C 121.15 -1.8 131.9 -1.9 134.71046 -2.1678 C 137.52 -2.44 144.08 -2.52 162.05694 -2.52449" />
    <path d="M 162.05694 7.47434 C 180.04 7.47 188.23 7.33 185.95506 7.15523 L 185.95506 -2.84361" />
    <path d="M 185.95506 6.79629 C 182.6 6.79 187.1 6.67 204.20365 6.58841 C 221.31 6.5 226.13 6.33 221.83675 6.29273 L 221.83675 -3.70611" />
    <path d="M 221.83675 5.60153 C 209.8 5.84 211.81 5.71 226.36149 5.54695 C 240.91 5.39 241.9 5.19 238.04556 5.26603 L 238.04556 -4.7328" />
    <path d="M -238.04556 4.7328 C -240.91 4.61 -241.9 4.81 -232.58811 4.94123" />
    <path d="M -232.58811 5.79135 C -236.93 5.77 -233.99 5.96 -217.9661 6.081 L -217.9661 -3.91784" />
    <path d="M -217.9661 6.081 C -201.94 6.21 -198.65 6.33 -206.12234 6.20854" />
    <path d="M -206.12234 6.75352 C -209.76 6.85 -203.17 7.01 -185.41304 7.05671 L -185.41304 -2.94213" />
    <path d="M -162.05694 7.47434 L -162.05694 -2.52449" />
    <path d="M -185.41304 7.05671 C -167.65 7.1 -162.06 7.2 -162.05694 7.47434 C -162.06 7.75 -152.47 7.87 -134.71046 7.83103 L -134.71046 -2.1678" />
    <path d="M -134.71046 7.83103 C -116.95 7.79 -109.6 7.86 -104.04696 8.118 L -104.04696 -1.88083" />
    <path d="M -104.04696 8.118 C -98.49 8.38 -86.84 8.45 -70.82148 8.32818 L -70.82148 -1.67065" />
    <path d="M -70.82148 8.32818 C -54.8 8.2 -46.42 8.23 -35.85214 8.45639 L -35.85214 -1.54244" />
    <path d="M -35.85214 8.45639 C -25.28 8.68 -12.71 8.69 0 8.49949 L 0 -1.49935" />
    <path d="M 0 8.49949 C 12.71 8.31 21.3 8.29 35.85214 8.45639 L 35.85214 -1.54244" />
    <path d="M 35.85214 8.45639 C 50.4 8.62 62.66 8.57 70.82148 8.32818 L 70.82148 -1.67065" />
    <path d="M 70.82148 8.32818 C 78.98 8.08 86.95 8.03 104.04696 8.118 L 104.04696 -1.88083" />
    <path d="M 104.04696 8.118 C 121.15 8.2 131.9 8.1 134.71046 7.83103 L 134.71046 -2.1678" />
    <path d="M 134.71046 7.83103 C 137.52 7.56 144.08 7.47 162.05694 7.47434" />
    <path d="M 204.20365 6.58841 L 204.20365 -3.41042" />
    <path d="M 226.36149 5.54695 L 226.36149 -4.45189" />
    <path d="M 226.36149 -5.0449 L 226.36149 -5.54695" />
    <path d="M 204.20365 -6.24756 L 204.20365 -6.58841" />
    <path d="M -185.41304 -6.82244 L -185.41304 -7.05671" />
    <path d="M -217.9661 -5.66044 L -217.9661 -6.081" />
    <path d="M -229.18312 -4.38478 L -229.18312 -4.99942" />
    <path d="M 232.58811 -4.94123 L 232.58811 -5.79135" />
    <path d="M 206.12234 -6.20854 L 206.12234 -6.75352" />
    <path d="M -185.95506 -6.79629 L -185.95506 -7.15523" />
    <path d="M -221.83675 -5.60153 L -221.83675 -6.29273" />
    <path d="M -238.04556 4.7328 L -238.04556 -5.26603" />
    <path d="M -232.58811 5.79135 L -232.58811 -4.20749" />
    <path d="M -206.12234 6.75352 L -206.12234 -3.24531" />
</svg>